<svg width="24" height="25" viewBox="0 0 24 25" fill="none" xmlns="http://www.w3.org/2000/svg">
<path d="M12 22.1429C17.5228 22.1429 22 17.6657 22 12.1429C22 6.62004 17.5228 2.14288 12 2.14288C6.47715 2.14288 2 6.62004 2 12.1429C2 17.6657 6.47715 22.1429 12 22.1429Z" fill="#7C85B5"/>
<path d="M3.40674 17.2604C4.62405 19.2998 6.54695 20.8692 8.8386 21.6321C9.33895 21.7236 9.52125 21.4148 9.52125 21.1496C9.52125 21.0398 9.5194 20.8458 9.51695 20.5862C9.5141 20.2855 9.5104 19.8968 9.50775 19.4491C6.7262 20.0532 6.13935 18.1084 6.13935 18.1084C5.68445 16.9536 5.0288 16.6461 5.0288 16.6461C4.12085 16.0254 5.09755 16.0377 5.09755 16.0377C6.10125 16.1089 6.6292 17.0684 6.6292 17.0684C7.5212 18.5964 8.97 18.155 9.5397 17.8996C9.63055 17.2532 9.88835 16.8124 10.1744 16.5626C7.954 16.3103 5.61935 15.452 5.61935 11.6201C5.61935 10.5286 6.0092 9.63603 6.64885 8.93683C6.5457 8.68388 6.20255 7.66728 6.74645 6.29033C6.74645 6.29033 7.58625 6.02143 9.4967 7.31553C10.2941 7.09393 11.1499 6.98278 12.0001 6.97913C12.8491 6.98278 13.7049 7.09393 14.5036 7.31553C16.4128 6.02143 17.2508 6.29033 17.2508 6.29033C17.7965 7.66728 17.4533 8.68388 17.3502 8.93683C17.9911 9.63603 18.3785 10.5286 18.3785 11.6201C18.3785 15.4619 16.0402 16.3072 13.8123 16.5546C14.1715 16.8634 14.4913 17.4736 14.4913 18.4067C14.4913 19.3005 14.4858 20.079 14.4822 20.5946C14.4804 20.85 14.479 21.041 14.479 21.1496C14.479 21.4172 14.6589 21.7285 15.1666 21.6309C16.9922 21.0215 18.5835 19.9006 19.7701 18.438C17.9367 20.6983 15.137 22.1429 11.9998 22.1429C8.34715 22.1429 5.1519 20.1845 3.40674 17.2604Z" fill="white"/>
</svg>
