<svg viewBox="0 0 48 48" fill="none" xmlns="http://www.w3.org/2000/svg">
<path d="M12 0C10.35 0 9 1.35 9 3V45C9 46.65 10.35 48 12 48H42C43.65 48 45 46.65 45 45V12L33 0H12Z" fill="#E2E5E7"/>
<path d="M36 12H45L33 0V9C33 10.65 34.35 12 36 12Z" fill="#B0B7BD"/>
<path d="M45 21L36 12H45V21Z" fill="#CAD1D8"/>
<path d="M39 39C39 39.825 38.325 40.5 37.5 40.5H4.5C3.675 40.5 3 39.825 3 39V24C3 23.175 3.675 22.5 4.5 22.5H37.5C38.325 22.5 39 23.175 39 24V39Z" fill="#F15642"/>
<path d="M9.19951 29.5005C9.47551 27.1725 12.9885 26.754 14.643 28.026C15.459 28.6845 14.5965 29.7285 13.875 29.2005C12.9885 28.638 10.9725 28.374 10.7205 29.619C10.3965 31.587 15.615 30.4605 15.5295 33.651C15.4455 36.6975 11.0325 36.768 9.37651 35.4015C8.98051 35.0775 8.99251 34.551 9.21001 34.2255C9.52051 33.915 9.86851 33.807 10.2765 34.143C11.2605 34.8135 13.791 35.3175 13.971 33.6135C13.8165 31.8405 8.82751 32.907 9.19951 29.5005Z" fill="white"/>
<path d="M24.8895 34.6335L25.0815 34.86C25.872 35.58 24.8415 36.756 24.0375 36L23.631 35.6775C23.007 36.108 22.2765 36.3135 21.3045 36.3135C19.194 36.3135 16.782 34.86 16.782 31.9095C16.782 28.959 19.1805 27.4605 21.3045 27.4605C23.5335 27.4605 25.7175 28.959 25.7175 31.9095C25.7175 33.0495 25.428 33.891 24.8895 34.6335ZM24.168 31.9095C24.168 30.003 22.6695 29.0325 21.303 29.0325C19.8285 29.0325 18.3765 30.0015 18.3765 31.9095C18.3765 33.363 19.611 34.7415 21.303 34.7415C21.7335 34.7415 22.1535 34.6335 22.5735 34.5255L21.207 33.2655C20.571 32.4975 21.579 31.4055 22.3815 32.1135L23.7375 33.468C24.036 33.0495 24.168 32.5335 24.168 31.9095Z" fill="white"/>
<path d="M27.4845 28.4205C27.4845 28.0245 27.8205 27.6885 28.2405 27.6885C28.6245 27.6885 28.9485 28.026 28.9485 28.4205V34.4295H32.211C33.3855 34.4295 33.411 36 32.211 36H28.242C27.822 36 27.486 35.7015 27.486 35.2695V28.4205H27.4845Z" fill="white"/>
<path d="M37.5 40.5H9V42H37.5C38.325 42 39 41.325 39 40.5V39C39 39.825 38.325 40.5 37.5 40.5Z" fill="#CAD1D8"/>
</svg>
