<svg viewBox="0 0 32 33" fill="none" xmlns="http://www.w3.org/2000/svg">
<path d="M2.88667 26.2109C3.13467 26.5842 3.55201 26.8095 4.00001 26.8095H24C24.5333 26.8095 25.016 26.4922 25.2253 26.0015L29.2253 16.6682C29.313 16.4655 29.3488 16.2441 29.3295 16.024C29.3102 15.804 29.2365 15.5922 29.1149 15.4078C28.9933 15.2234 28.8277 15.0721 28.6331 14.9677C28.4385 14.8632 28.2209 14.8089 28 14.8095H26.6667V9.47622C26.6667 8.00555 25.4707 6.80955 24 6.80955H15.8667L12.8213 4.42688C12.5871 4.24287 12.2979 4.14286 12 4.14288H5.33334C3.86267 4.14288 2.66667 5.33888 2.66667 6.80955V25.4762H2.67601C2.67303 25.7364 2.74626 25.9918 2.88667 26.2109ZM23.1213 24.1429H6.02267L8.88 17.4762H25.9787L23.1213 24.1429ZM24 9.47622V14.8095H8.00001C7.46667 14.8095 6.984 15.1269 6.77467 15.6175L5.33334 18.9815V9.47622H24Z" fill="#7C85B5"/>
</svg>
