<svg viewBox="0 0 48 48" fill="none" xmlns="http://www.w3.org/2000/svg">
<path d="M3.87804 26.1198C2.70732 24.9491 2.70732 23.0509 3.87804 21.8802L21.8802 3.87804C23.0509 2.70732 24.9491 2.70732 26.1198 3.87804L44.1219 21.8802C45.2927 23.0509 45.2927 24.9491 44.1219 26.1198L26.1198 44.1219C24.9491 45.2927 23.0509 45.2927 21.8802 44.1219L3.87804 26.1198Z" fill="#EE513B"/>
<path d="M18.2233 7.59229L16.4004 9.4153L21.1087 14.1237C20.9183 14.5323 20.8119 14.988 20.8119 15.4686C20.8119 16.833 21.6692 17.9972 22.8744 18.4518V29.9697C21.6692 30.4244 20.8119 31.5885 20.8119 32.9529C20.8119 34.7133 22.239 36.1404 23.9994 36.1404C25.7598 36.1404 27.1869 34.7133 27.1869 32.9529C27.1869 31.716 26.4823 30.6435 25.4526 30.1152V18.4676L29.9534 22.9683C29.7722 23.3687 29.6713 23.8131 29.6713 24.2811C29.6713 26.0415 31.0984 27.4686 32.8588 27.4686C34.6192 27.4686 36.0463 26.0415 36.0463 24.2811C36.0463 22.5207 34.6192 21.0936 32.8588 21.0936C32.5167 21.0936 32.1873 21.1475 31.8783 21.2472L27.0445 16.4135C27.1371 16.115 27.1869 15.7976 27.1869 15.4686C27.1869 13.7082 25.7598 12.2811 23.9994 12.2811C23.6705 12.2811 23.3532 12.3309 23.0546 12.4235L18.2233 7.59229Z" fill="white"/>
</svg>
