<svg width="48" height="48" viewBox="0 0 48 48" fill="none" xmlns="http://www.w3.org/2000/svg">
<g clip-path="url(#clip0_82_615)">
<path d="M35.817 37.8517H35.6362V37.7505H36.123V37.8517H35.9433V38.3565H35.817V37.8517ZM36.788 37.8781H36.7851L36.6059 38.3566H36.5239L36.3459 37.8781H36.3437V38.3566H36.2246V37.7507H36.3999L36.565 38.1798L36.7295 37.7507H36.9042V38.3566H36.7879L36.788 37.8781Z" fill="#E76F00"/>
<path d="M19.6288 25.4617C19.6288 25.4617 18.3706 26.1934 20.5241 26.441C23.1331 26.7386 24.4665 26.6959 27.3416 26.1518C27.3416 26.1518 28.0975 26.6257 29.1531 27.0362C22.7079 29.7985 14.5664 26.8763 19.6288 25.4617ZM18.8412 21.8571C18.8412 21.8571 17.43 22.9017 19.5852 23.1246C22.3722 23.4121 24.5731 23.4356 28.3815 22.7023C28.3815 22.7023 28.9084 23.2363 29.7367 23.5284C21.944 25.807 13.2644 23.7081 18.8412 21.8571Z" fill="#5382A1"/>
<path d="M25.4806 15.7425C27.0687 17.5709 25.0635 19.2163 25.0635 19.2163C25.0635 19.2163 29.0957 17.1346 27.2439 14.5279C25.5143 12.0968 24.1879 10.8891 31.3684 6.72461C31.3685 6.72452 20.0973 9.53953 25.4806 15.7425Z" fill="#E76F00"/>
<path d="M34.0049 28.1279C34.0049 28.1279 34.936 28.8951 32.9795 29.4885C29.2593 30.6155 17.4954 30.9559 14.2275 29.5335C13.0528 29.0224 15.2557 28.3132 15.9487 28.1644C16.6714 28.0076 17.0844 28.0368 17.0844 28.0368C15.778 27.1165 8.64017 29.8439 13.4587 30.625C26.5997 32.7561 37.4136 29.6654 34.0049 28.1279ZM20.2338 18.1223C20.2338 18.1223 14.25 19.5435 18.1148 20.0597C19.7466 20.2781 22.9996 20.2287 26.0297 19.9748C28.506 19.7659 30.9927 19.3219 30.9927 19.3219C30.9927 19.3219 30.1195 19.6958 29.4878 20.1271C23.4113 21.7253 11.6727 20.9817 15.0521 19.3471C17.91 17.9656 20.2338 18.1223 20.2338 18.1223ZM30.968 24.1223C37.1451 20.9125 34.2891 17.8278 32.2956 18.2435C31.807 18.3452 31.5891 18.4333 31.5891 18.4333C31.5891 18.4333 31.7706 18.1492 32.1169 18.0262C36.0606 16.6397 39.0935 22.1154 30.8438 24.2842C30.8438 24.2842 30.9396 24.1988 30.968 24.1223Z" fill="#5382A1"/>
<path d="M27.2439 0C27.2439 0 30.6648 3.42199 23.9993 8.68428C18.6542 12.9054 22.7805 15.3122 23.9971 18.0621C20.8772 15.247 18.5875 12.7691 20.1236 10.4627C22.3781 7.07719 28.6242 5.43577 27.2439 0Z" fill="#E76F00"/>
<path d="M20.8408 32.8202C26.7699 33.1997 35.8748 32.6096 36.0904 29.8042C36.0904 29.8042 35.676 30.8677 31.1903 31.7124C26.1297 32.6646 19.888 32.5535 16.186 31.9432C16.1862 31.943 16.9439 32.5703 20.8408 32.8202Z" fill="#5382A1"/>
<path d="M19.8691 43.5403C19.3097 44.0254 18.719 44.2977 18.1889 44.2977C17.4322 44.2977 17.0234 43.844 17.0234 43.1163C17.0234 42.329 17.4615 41.7535 19.2187 41.7535H19.869L19.8691 43.5403ZM21.4124 45.2816V39.8914C21.4124 38.5143 20.6271 37.6058 18.7336 37.6058C17.6281 37.6058 16.6598 37.8787 15.8728 38.2269L16.0999 39.181C16.7196 38.9536 17.5217 38.7418 18.309 38.7418C19.3998 38.7418 19.8691 39.181 19.8691 40.089V40.7703H19.3246C16.6744 40.7703 15.4789 41.7991 15.4789 43.3432C15.4789 44.6759 16.2668 45.4334 17.7501 45.4334C18.7036 45.4334 19.4154 45.0396 20.0808 44.4635L20.2016 45.2818L21.4124 45.2816ZM26.5632 45.2816H24.6383L22.3217 37.7423H24.0028L25.4402 42.3744L25.7597 43.7675C26.4869 41.7533 27.0014 39.7098 27.2586 37.7423H28.8938C28.4556 40.2248 27.6673 42.9499 26.5632 45.2816ZM33.9476 43.5403C33.3872 44.0254 32.7955 44.2977 32.2652 44.2977C31.5099 44.2977 31.1 43.844 31.1 43.1163C31.1 42.329 31.539 41.7535 33.2961 41.7535H33.9476V43.5403ZM35.4908 45.2816V39.8914C35.4908 38.5143 34.7036 37.6058 32.8121 37.6058C31.7059 37.6058 30.7372 37.8787 29.9506 38.2269L30.1775 39.181C30.7973 38.9536 31.6009 38.7418 32.3876 38.7418C33.4776 38.7418 33.9476 39.181 33.9476 40.089V40.7703H33.4022C30.7513 40.7703 29.5562 41.7991 29.5562 43.3432C29.5562 44.6759 30.3434 45.4334 31.8265 45.4334C32.7807 45.4334 33.4922 45.0396 34.1586 44.4635L34.2798 45.2818L35.4908 45.2816ZM13.7867 46.5619C13.3467 47.2042 12.636 47.7125 11.8581 48L11.0961 47.1033C11.6882 46.7994 12.1961 46.3087 12.432 45.8517C12.6361 45.4452 12.7206 44.9212 12.7206 43.6683V35.061H14.3604V43.5504C14.3603 45.2253 14.2264 45.902 13.7867 46.5619Z" fill="#E76F00"/>
</g>
<defs>
<clipPath id="clip0_82_615">
<rect width="48" height="48" fill="white"/>
</clipPath>
</defs>
</svg>
