<svg width="32" height="32" viewBox="0 0 32 32" fill="none" xmlns="http://www.w3.org/2000/svg">
<g clip-path="url(#clip0_99_321)">
<path d="M0 2.29225C0 1.027 1.05925 0 2.365 0H29.635C30.9412 0 32 1.027 32 2.29225V29.7081C32 30.9737 30.9412 32 29.635 32H2.365C1.05938 32 0 30.9739 0 29.7085V2.29187V2.29225Z" fill="#7C85B5"/>
<path d="M9.7245 26.7797V12.3732H4.936V26.7797H9.725H9.7245ZM7.33125 10.4066C9.00075 10.4066 10.0401 9.30034 10.0401 7.91784C10.0089 6.50384 9.00075 5.42847 7.363 5.42847C5.72412 5.42847 4.65375 6.50384 4.65375 7.91772C4.65375 9.30022 5.69275 10.4065 7.29987 10.4065H7.33087L7.33125 10.4066ZM12.375 26.7797H17.1631V18.7353C17.1631 18.3053 17.1944 17.8742 17.3209 17.5671C17.6669 16.7065 18.4547 15.8156 19.7779 15.8156C21.5101 15.8156 22.2035 17.1366 22.2035 19.0735V26.7797H26.9915V18.5195C26.9915 14.0946 24.6295 12.0355 21.4791 12.0355C18.8962 12.0355 17.7619 13.4791 17.1316 14.4623H17.1635V12.3737H12.3752C12.4377 13.7252 12.3749 26.7802 12.3749 26.7802L12.375 26.7797Z" fill="white"/>
</g>
<defs>
<clipPath id="clip0_99_321">
<rect width="32" height="32" fill="white"/>
</clipPath>
</defs>
</svg>
