<svg width="160" height="115" viewBox="0 0 160 115" fill="none" xmlns="http://www.w3.org/2000/svg">
<g clip-path="url(#clip0_110_1108)">
<path d="M93.0423 20.2907C96.0052 20.2907 98.4071 17.8888 98.4071 14.926C98.4071 11.9631 96.0052 9.56123 93.0423 9.56123C90.0794 9.56123 87.6775 11.9631 87.6775 14.926C87.6775 17.8888 90.0794 20.2907 93.0423 20.2907Z" fill="#F2F2F2"/>
<path d="M134.659 99.9097C142.633 93.836 146.442 83.6299 144.058 73.8939C143.998 73.652 143.936 73.4106 143.87 73.1698C142.289 67.3907 138.378 61.898 132.678 60.0514C127.893 58.5009 122.668 59.6932 117.676 59.0767C107.874 57.8663 100.275 49.936 94.9287 41.6328C89.5819 33.3297 85.4728 24.0355 78.3681 17.1759C66.6573 5.86896 47.5539 3.43457 33.0341 10.7945C18.5144 18.1545 9.26543 34.4832 9.65987 50.7568C10.0543 67.0304 19.7154 82.5891 33.7457 90.844C38.8999 93.8765 44.8611 96.0248 50.7938 95.273C55.9415 94.6208 60.6189 91.8548 65.7423 91.0337C73.7976 89.7426 81.8016 93.3846 88.7689 97.6287C95.7361 101.873 102.466 106.903 110.383 108.871C118.071 110.781 127.595 105.29 134.659 99.9097Z" fill="#F2F2F2"/>
<path d="M123.202 11.1362C123.027 11.0197 122.85 10.9092 122.676 10.7967C117.623 7.56503 112.206 4.93966 106.539 2.97483L105.225 21.1019H96.8949V0.328695C96.3705 0.220198 95.8421 0.117728 95.3137 0.021286V21.1019H85.4141C79.9643 21.1019 74.7377 18.937 70.8841 15.0835C67.0305 11.23 64.8655 6.00347 64.8655 0.55375C64.3351 0.668275 63.8087 0.790819 63.2823 0.921418V21.1019H55.2191L53.9674 3.81669C48.1435 6.05019 42.6146 8.98735 37.5036 12.5628C37.4152 12.6231 37.3268 12.6853 37.2404 12.7456C36.7964 13.0571 36.3583 13.3745 35.9223 13.696V82.851H59.6857L59.2658 77.0344L56.9551 45.0979H103.487L101.177 77.0344L100.757 82.851H124.257V11.8355C123.907 11.5984 123.556 11.3653 123.202 11.1362ZM63.2823 39.8238H56.5734L55.3337 22.6852H63.2823V39.8238ZM95.3137 39.8238H84.0458V39.4842C84.0458 39.321 84.0136 39.1593 83.9511 39.0086C83.8886 38.8578 83.797 38.7208 83.6814 38.6055C83.5659 38.4901 83.4288 38.3987 83.2779 38.3364C83.127 38.2742 82.9653 38.2422 82.8021 38.2425H77.9035C77.7405 38.2425 77.579 38.2745 77.4283 38.3369C77.2776 38.3993 77.1407 38.4907 77.0254 38.6061C76.9101 38.7214 76.8186 38.8583 76.7562 39.009C76.6938 39.1596 76.6618 39.3211 76.6618 39.4842V39.8238H64.8656V22.6852H95.3137V39.8238ZM96.895 39.8238V22.6852H105.111L103.871 39.8238H96.895Z" fill="#7C85B5"/>
<path d="M0.954201 87.2795C2.69968 89.3477 4.58762 91.2913 6.60421 93.0962L153.396 93.2971C155.412 91.4922 157.3 89.5486 159.046 87.4804L0.954201 87.2795Z" fill="#7C85B5"/>
<path d="M100.498 68.6542V85.874C100.499 86.0934 100.586 86.3038 100.741 86.459C100.896 86.6142 101.106 86.7014 101.326 86.7016H126.844C127.064 86.7014 127.274 86.6142 127.429 86.459C127.584 86.3038 127.672 86.0934 127.672 85.874V68.6542C127.671 68.435 127.584 68.2249 127.429 68.0699C127.274 67.915 127.064 67.8278 126.844 67.8275H101.326C101.107 67.8278 100.896 67.915 100.741 68.0699C100.586 68.2249 100.499 68.435 100.498 68.6542Z" fill="#3F3D56"/>
<path d="M101.097 68.8685V85.6616C101.097 85.7788 101.144 85.8912 101.227 85.9741C101.31 86.057 101.422 86.1037 101.539 86.1039H126.632C126.749 86.1037 126.862 86.057 126.944 85.9741C127.027 85.8912 127.074 85.7788 127.074 85.6616V68.8685C127.074 68.7511 127.028 68.6385 126.945 68.5554C126.862 68.4723 126.749 68.4255 126.632 68.4253H101.539C101.422 68.4255 101.309 68.4723 101.226 68.5554C101.144 68.6385 101.097 68.7511 101.097 68.8685Z" fill="#444564"/>
<path d="M99.9646 89.2323C100.011 89.2909 100.071 89.3382 100.138 89.3705C100.206 89.4029 100.28 89.4195 100.355 89.4191H127.679C127.754 89.419 127.828 89.4023 127.895 89.3701C127.963 89.3379 128.022 89.2911 128.069 89.2331C128.116 89.175 128.15 89.1072 128.167 89.0346C128.185 88.962 128.186 88.8863 128.171 88.8132L127.747 86.7985C127.729 86.7164 127.691 86.6399 127.636 86.5761C127.582 86.5123 127.512 86.4632 127.434 86.4333C127.377 86.411 127.316 86.3996 127.255 86.3996H100.778C100.717 86.3996 100.656 86.411 100.599 86.4333C100.521 86.4632 100.451 86.5123 100.396 86.5761C100.342 86.6399 100.304 86.7164 100.286 86.7985L99.862 88.8132C99.8469 88.8863 99.8483 88.9618 99.866 89.0343C99.8838 89.1068 99.9175 89.1744 99.9646 89.2323Z" fill="#2F2E41"/>
<path d="M126.318 87.2674H126.963C127.017 87.2674 127.061 87.2235 127.061 87.1693V86.8605C127.061 86.8064 127.017 86.7625 126.963 86.7625H126.318C126.263 86.7625 126.219 86.8064 126.219 86.8605V87.1693C126.219 87.2235 126.263 87.2674 126.318 87.2674Z" fill="#3F3D56"/>
<path d="M124.634 87.2674H125.28C125.334 87.2674 125.378 87.2235 125.378 87.1693V86.8605C125.378 86.8064 125.334 86.7625 125.28 86.7625H124.634C124.58 86.7625 124.536 86.8064 124.536 86.8605V87.1693C124.536 87.2235 124.58 87.2674 124.634 87.2674Z" fill="#3F3D56"/>
<path d="M122.951 87.2674H123.597C123.651 87.2674 123.695 87.2235 123.695 87.1693V86.8605C123.695 86.8064 123.651 86.7625 123.597 86.7625H122.951C122.897 86.7625 122.853 86.8064 122.853 86.8605V87.1693C122.853 87.2235 122.897 87.2674 122.951 87.2674Z" fill="#3F3D56"/>
<path d="M121.268 87.2674H121.914C121.968 87.2674 122.012 87.2235 122.012 87.1693V86.8605C122.012 86.8064 121.968 86.7625 121.914 86.7625H121.268C121.214 86.7625 121.17 86.8064 121.17 86.8605V87.1693C121.17 87.2235 121.214 87.2674 121.268 87.2674Z" fill="#3F3D56"/>
<path d="M119.585 87.2674H120.23C120.285 87.2674 120.328 87.2235 120.328 87.1693V86.8605C120.328 86.8064 120.285 86.7625 120.23 86.7625H119.585C119.531 86.7625 119.487 86.8064 119.487 86.8605V87.1693C119.487 87.2235 119.531 87.2674 119.585 87.2674Z" fill="#3F3D56"/>
<path d="M117.902 87.2674H118.547C118.601 87.2674 118.645 87.2235 118.645 87.1693V86.8605C118.645 86.8064 118.601 86.7625 118.547 86.7625H117.902C117.848 86.7625 117.804 86.8064 117.804 86.8605V87.1693C117.804 87.2235 117.848 87.2674 117.902 87.2674Z" fill="#3F3D56"/>
<path d="M116.219 87.2674H116.864C116.918 87.2674 116.962 87.2235 116.962 87.1693V86.8605C116.962 86.8064 116.918 86.7625 116.864 86.7625H116.219C116.165 86.7625 116.121 86.8064 116.121 86.8605V87.1693C116.121 87.2235 116.165 87.2674 116.219 87.2674Z" fill="#3F3D56"/>
<path d="M114.536 87.2674H115.181C115.235 87.2674 115.279 87.2235 115.279 87.1693V86.8605C115.279 86.8064 115.235 86.7625 115.181 86.7625H114.536C114.481 86.7625 114.437 86.8064 114.437 86.8605V87.1693C114.437 87.2235 114.481 87.2674 114.536 87.2674Z" fill="#3F3D56"/>
<path d="M112.852 87.2674H113.498C113.552 87.2674 113.596 87.2235 113.596 87.1693V86.8605C113.596 86.8064 113.552 86.7625 113.498 86.7625H112.852C112.798 86.7625 112.754 86.8064 112.754 86.8605V87.1693C112.754 87.2235 112.798 87.2674 112.852 87.2674Z" fill="#3F3D56"/>
<path d="M111.169 87.2674H111.815C111.869 87.2674 111.913 87.2235 111.913 87.1693V86.8605C111.913 86.8064 111.869 86.7625 111.815 86.7625H111.169C111.115 86.7625 111.071 86.8064 111.071 86.8605V87.1693C111.071 87.2235 111.115 87.2674 111.169 87.2674Z" fill="#3F3D56"/>
<path d="M109.486 87.2674H110.132C110.186 87.2674 110.23 87.2235 110.23 87.1693V86.8605C110.23 86.8064 110.186 86.7625 110.132 86.7625H109.486C109.432 86.7625 109.388 86.8064 109.388 86.8605V87.1693C109.388 87.2235 109.432 87.2674 109.486 87.2674Z" fill="#3F3D56"/>
<path d="M107.803 87.2674H108.448C108.503 87.2674 108.546 87.2235 108.546 87.1693V86.8605C108.546 86.8064 108.503 86.7625 108.448 86.7625H107.803C107.749 86.7625 107.705 86.8064 107.705 86.8605V87.1693C107.705 87.2235 107.749 87.2674 107.803 87.2674Z" fill="#3F3D56"/>
<path d="M106.12 87.2674H106.765C106.819 87.2674 106.863 87.2235 106.863 87.1693V86.8605C106.863 86.8064 106.819 86.7625 106.765 86.7625H106.12C106.066 86.7625 106.022 86.8064 106.022 86.8605V87.1693C106.022 87.2235 106.066 87.2674 106.12 87.2674Z" fill="#3F3D56"/>
<path d="M104.437 87.2674H105.082C105.136 87.2674 105.18 87.2235 105.18 87.1693V86.8605C105.18 86.8064 105.136 86.7625 105.082 86.7625H104.437C104.383 86.7625 104.339 86.8064 104.339 86.8605V87.1693C104.339 87.2235 104.383 87.2674 104.437 87.2674Z" fill="#3F3D56"/>
<path d="M102.754 87.2674H103.399C103.453 87.2674 103.497 87.2235 103.497 87.1693V86.8605C103.497 86.8064 103.453 86.7625 103.399 86.7625H102.754C102.699 86.7625 102.655 86.8064 102.655 86.8605V87.1693C102.655 87.2235 102.699 87.2674 102.754 87.2674Z" fill="#3F3D56"/>
<path d="M101.07 87.2674H101.716C101.77 87.2674 101.814 87.2235 101.814 87.1693V86.8605C101.814 86.8064 101.77 86.7625 101.716 86.7625H101.07C101.016 86.7625 100.972 86.8064 100.972 86.8605V87.1693C100.972 87.2235 101.016 87.2674 101.07 87.2674Z" fill="#3F3D56"/>
<path d="M126.337 88.109H126.983C127.037 88.109 127.081 88.065 127.081 88.0109V87.7021C127.081 87.6479 127.037 87.604 126.983 87.604H126.337C126.283 87.604 126.239 87.6479 126.239 87.7021V88.0109C126.239 88.065 126.283 88.109 126.337 88.109Z" fill="#3F3D56"/>
<path d="M124.654 88.109H125.3C125.354 88.109 125.398 88.065 125.398 88.0109V87.7021C125.398 87.6479 125.354 87.604 125.3 87.604H124.654C124.6 87.604 124.556 87.6479 124.556 87.7021V88.0109C124.556 88.065 124.6 88.109 124.654 88.109Z" fill="#3F3D56"/>
<path d="M122.971 88.109H123.617C123.671 88.109 123.715 88.065 123.715 88.0109V87.7021C123.715 87.6479 123.671 87.604 123.617 87.604H122.971C122.917 87.604 122.873 87.6479 122.873 87.7021V88.0109C122.873 88.065 122.917 88.109 122.971 88.109Z" fill="#3F3D56"/>
<path d="M121.288 88.109H121.933C121.988 88.109 122.032 88.065 122.032 88.0109V87.7021C122.032 87.6479 121.988 87.604 121.933 87.604H121.288C121.234 87.604 121.19 87.6479 121.19 87.7021V88.0109C121.19 88.065 121.234 88.109 121.288 88.109Z" fill="#3F3D56"/>
<path d="M119.605 88.109H120.25C120.304 88.109 120.348 88.065 120.348 88.0109V87.7021C120.348 87.6479 120.304 87.604 120.25 87.604H119.605C119.551 87.604 119.507 87.6479 119.507 87.7021V88.0109C119.507 88.065 119.551 88.109 119.605 88.109Z" fill="#3F3D56"/>
<path d="M117.922 88.109H118.567C118.621 88.109 118.665 88.065 118.665 88.0109V87.7021C118.665 87.6479 118.621 87.604 118.567 87.604H117.922C117.868 87.604 117.824 87.6479 117.824 87.7021V88.0109C117.824 88.065 117.868 88.109 117.922 88.109Z" fill="#3F3D56"/>
<path d="M116.239 88.109H116.884C116.938 88.109 116.982 88.065 116.982 88.0109V87.7021C116.982 87.6479 116.938 87.604 116.884 87.604H116.239C116.184 87.604 116.14 87.6479 116.14 87.7021V88.0109C116.14 88.065 116.184 88.109 116.239 88.109Z" fill="#3F3D56"/>
<path d="M114.555 88.109H115.201C115.255 88.109 115.299 88.065 115.299 88.0109V87.7021C115.299 87.6479 115.255 87.604 115.201 87.604H114.555C114.501 87.604 114.457 87.6479 114.457 87.7021V88.0109C114.457 88.065 114.501 88.109 114.555 88.109Z" fill="#3F3D56"/>
<path d="M112.872 88.109H113.518C113.572 88.109 113.616 88.065 113.616 88.0109V87.7021C113.616 87.6479 113.572 87.604 113.518 87.604H112.872C112.818 87.604 112.774 87.6479 112.774 87.7021V88.0109C112.774 88.065 112.818 88.109 112.872 88.109Z" fill="#3F3D56"/>
<path d="M111.189 88.109H111.835C111.889 88.109 111.933 88.065 111.933 88.0109V87.7021C111.933 87.6479 111.889 87.604 111.835 87.604H111.189C111.135 87.604 111.091 87.6479 111.091 87.7021V88.0109C111.091 88.065 111.135 88.109 111.189 88.109Z" fill="#3F3D56"/>
<path d="M109.506 88.109H110.151C110.206 88.109 110.249 88.065 110.249 88.0109V87.7021C110.249 87.6479 110.206 87.604 110.151 87.604H109.506C109.452 87.604 109.408 87.6479 109.408 87.7021V88.0109C109.408 88.065 109.452 88.109 109.506 88.109Z" fill="#3F3D56"/>
<path d="M107.823 88.109H108.468C108.522 88.109 108.566 88.065 108.566 88.0109V87.7021C108.566 87.6479 108.522 87.604 108.468 87.604H107.823C107.769 87.604 107.725 87.6479 107.725 87.7021V88.0109C107.725 88.065 107.769 88.109 107.823 88.109Z" fill="#3F3D56"/>
<path d="M106.14 88.109H106.785C106.839 88.109 106.883 88.065 106.883 88.0109V87.7021C106.883 87.6479 106.839 87.604 106.785 87.604H106.14C106.086 87.604 106.042 87.6479 106.042 87.7021V88.0109C106.042 88.065 106.086 88.109 106.14 88.109Z" fill="#3F3D56"/>
<path d="M104.457 88.109H105.102C105.156 88.109 105.2 88.065 105.2 88.0109V87.7021C105.2 87.6479 105.156 87.604 105.102 87.604H104.457C104.402 87.604 104.359 87.6479 104.359 87.7021V88.0109C104.359 88.065 104.402 88.109 104.457 88.109Z" fill="#3F3D56"/>
<path d="M102.773 88.109H103.419C103.473 88.109 103.517 88.065 103.517 88.0109V87.7021C103.517 87.6479 103.473 87.604 103.419 87.604H102.773C102.719 87.604 102.675 87.6479 102.675 87.7021V88.0109C102.675 88.065 102.719 88.109 102.773 88.109Z" fill="#3F3D56"/>
<path d="M101.09 88.109H101.736C101.79 88.109 101.834 88.065 101.834 88.0109V87.7021C101.834 87.6479 101.79 87.604 101.736 87.604H101.09C101.036 87.604 100.992 87.6479 100.992 87.7021V88.0109C100.992 88.065 101.036 88.109 101.09 88.109Z" fill="#3F3D56"/>
<path d="M112.367 89.1188H118.904C118.958 89.1188 119.002 89.0749 119.002 89.0207V88.712C119.002 88.6578 118.958 88.6139 118.904 88.6139H112.367C112.313 88.6139 112.269 88.6578 112.269 88.712V89.0207C112.269 89.0749 112.313 89.1188 112.367 89.1188Z" fill="#3F3D56"/>
<path d="M105.442 72.0992H104.871C104.698 72.0992 104.557 72.2396 104.557 72.4128C104.557 72.5861 104.698 72.7265 104.871 72.7265H105.442C105.615 72.7265 105.756 72.5861 105.756 72.4128C105.756 72.2396 105.615 72.0992 105.442 72.0992Z" fill="white"/>
<path d="M111.977 72.0992H111.406C111.232 72.0992 111.092 72.2396 111.092 72.4128C111.092 72.5861 111.232 72.7265 111.406 72.7265H111.977C112.15 72.7265 112.291 72.5861 112.291 72.4128C112.291 72.2396 112.15 72.0992 111.977 72.0992Z" fill="white"/>
<path d="M113.828 72.0992H113.257C113.084 72.0992 112.943 72.2396 112.943 72.4128C112.943 72.5861 113.084 72.7265 113.257 72.7265H113.828C114.002 72.7265 114.142 72.5861 114.142 72.4128C114.142 72.2396 114.002 72.0992 113.828 72.0992Z" fill="white"/>
<path d="M110.199 72.0469H106.648C106.475 72.0469 106.335 72.1873 106.335 72.3605C106.335 72.5338 106.475 72.6742 106.648 72.6742H110.199C110.373 72.6742 110.513 72.5338 110.513 72.3605C110.513 72.1873 110.373 72.0469 110.199 72.0469Z" fill="white"/>
<path d="M118.912 72.0469H115.361C115.188 72.0469 115.048 72.1873 115.048 72.3605C115.048 72.5338 115.188 72.6742 115.361 72.6742H118.912C119.086 72.6742 119.226 72.5338 119.226 72.3605C119.226 72.1873 119.086 72.0469 118.912 72.0469Z" fill="white"/>
<path d="M107.185 73.515H106.613C106.44 73.515 106.3 73.6554 106.3 73.8287C106.3 74.0019 106.44 74.1423 106.613 74.1423H107.185C107.358 74.1423 107.498 74.0019 107.498 73.8287C107.498 73.6554 107.358 73.515 107.185 73.515Z" fill="white"/>
<path d="M113.72 73.515H113.148C112.975 73.515 112.834 73.6554 112.834 73.8287C112.834 74.0019 112.975 74.1423 113.148 74.1423H113.72C113.893 74.1423 114.033 74.0019 114.033 73.8287C114.033 73.6554 113.893 73.515 113.72 73.515Z" fill="white"/>
<path d="M115.571 73.515H115C114.826 73.515 114.686 73.6554 114.686 73.8287C114.686 74.0019 114.826 74.1423 115 74.1423H115.571C115.744 74.1423 115.885 74.0019 115.885 73.8287C115.885 73.6554 115.744 73.515 115.571 73.515Z" fill="white"/>
<path d="M111.942 73.4627H108.391C108.218 73.4627 108.077 73.6031 108.077 73.7763C108.077 73.9496 108.218 74.09 108.391 74.09H111.942C112.115 74.09 112.256 73.9496 112.256 73.7763C112.256 73.6031 112.115 73.4627 111.942 73.4627Z" fill="white"/>
<path d="M120.655 73.4627H117.104C116.931 73.4627 116.79 73.6031 116.79 73.7763C116.79 73.9496 116.931 74.09 117.104 74.09H120.655C120.828 74.09 120.969 73.9496 120.969 73.7763C120.969 73.6031 120.828 73.4627 120.655 73.4627Z" fill="white"/>
<path d="M108.927 74.9308H108.356C108.183 74.9308 108.042 75.0712 108.042 75.2445C108.042 75.4177 108.183 75.5581 108.356 75.5581H108.927C109.101 75.5581 109.241 75.4177 109.241 75.2445C109.241 75.0712 109.101 74.9308 108.927 74.9308Z" fill="white"/>
<path d="M115.462 74.9308H114.891C114.718 74.9308 114.577 75.0712 114.577 75.2445C114.577 75.4177 114.718 75.5581 114.891 75.5581H115.462C115.635 75.5581 115.776 75.4177 115.776 75.2445C115.776 75.0712 115.635 74.9308 115.462 74.9308Z" fill="white"/>
<path d="M117.314 74.9308H116.742C116.569 74.9308 116.429 75.0712 116.429 75.2445C116.429 75.4177 116.569 75.5581 116.742 75.5581H117.314C117.487 75.5581 117.627 75.4177 117.627 75.2445C117.627 75.0712 117.487 74.9308 117.314 74.9308Z" fill="white"/>
<path d="M113.685 74.8785H110.133C109.96 74.8785 109.82 75.019 109.82 75.1922C109.82 75.3654 109.96 75.5058 110.133 75.5058H113.685C113.858 75.5058 113.998 75.3654 113.998 75.1922C113.998 75.019 113.858 74.8785 113.685 74.8785Z" fill="white"/>
<path d="M122.398 74.8785H118.846C118.673 74.8785 118.533 75.019 118.533 75.1922C118.533 75.3654 118.673 75.5058 118.846 75.5058H122.398C122.571 75.5058 122.711 75.3654 122.711 75.1922C122.711 75.019 122.571 74.8785 122.398 74.8785Z" fill="white"/>
<path d="M110.67 76.3466H110.099C109.925 76.3466 109.785 76.4871 109.785 76.6603C109.785 76.8335 109.925 76.974 110.099 76.974H110.67C110.843 76.974 110.984 76.8335 110.984 76.6603C110.984 76.4871 110.843 76.3466 110.67 76.3466Z" fill="white"/>
<path d="M117.205 76.3466H116.633C116.46 76.3466 116.32 76.4871 116.32 76.6603C116.32 76.8335 116.46 76.974 116.633 76.974H117.205C117.378 76.974 117.518 76.8335 117.518 76.6603C117.518 76.4871 117.378 76.3466 117.205 76.3466Z" fill="white"/>
<path d="M119.056 76.3466H118.485C118.312 76.3466 118.171 76.4871 118.171 76.6603C118.171 76.8335 118.312 76.974 118.485 76.974H119.056C119.229 76.974 119.37 76.8335 119.37 76.6603C119.37 76.4871 119.229 76.3466 119.056 76.3466Z" fill="white"/>
<path d="M115.427 76.2943H111.876C111.703 76.2943 111.562 76.4348 111.562 76.608C111.562 76.7812 111.703 76.9217 111.876 76.9217H115.427C115.6 76.9217 115.741 76.7812 115.741 76.608C115.741 76.4348 115.6 76.2943 115.427 76.2943Z" fill="white"/>
<path d="M111.977 81.9766H111.406C111.232 81.9766 111.092 82.117 111.092 82.2902C111.092 82.4634 111.232 82.6039 111.406 82.6039H111.977C112.15 82.6039 112.291 82.4634 112.291 82.2902C112.291 82.117 112.15 81.9766 111.977 81.9766Z" fill="white"/>
<path d="M113.828 81.9766H113.257C113.084 81.9766 112.943 82.117 112.943 82.2902C112.943 82.4634 113.084 82.6039 113.257 82.6039H113.828C114.002 82.6039 114.142 82.4634 114.142 82.2902C114.142 82.117 114.002 81.9766 113.828 81.9766Z" fill="white"/>
<path d="M118.912 82.0288H115.361C115.188 82.0288 115.048 82.1693 115.048 82.3425C115.048 82.5157 115.188 82.6561 115.361 82.6561H118.912C119.086 82.6561 119.226 82.5157 119.226 82.3425C119.226 82.1693 119.086 82.0288 118.912 82.0288Z" fill="white"/>
<path d="M105.442 81.9766H104.871C104.698 81.9766 104.557 82.117 104.557 82.2902C104.557 82.4634 104.698 82.6039 104.871 82.6039H105.442C105.615 82.6039 105.756 82.4634 105.756 82.2902C105.756 82.117 105.615 81.9766 105.442 81.9766Z" fill="white"/>
<path d="M110.199 82.0288H106.648C106.475 82.0288 106.335 82.1693 106.335 82.3425C106.335 82.5157 106.475 82.6561 106.648 82.6561H110.199C110.373 82.6561 110.513 82.5157 110.513 82.3425C110.513 82.1693 110.373 82.0288 110.199 82.0288Z" fill="white"/>
<path d="M107.185 80.5607H106.613C106.44 80.5607 106.3 80.7012 106.3 80.8744C106.3 81.0476 106.44 81.188 106.613 81.188H107.185C107.358 81.188 107.498 81.0476 107.498 80.8744C107.498 80.7012 107.358 80.5607 107.185 80.5607Z" fill="white"/>
<path d="M113.72 80.5607H113.148C112.975 80.5607 112.834 80.7012 112.834 80.8744C112.834 81.0476 112.975 81.188 113.148 81.188H113.72C113.893 81.188 114.033 81.0476 114.033 80.8744C114.033 80.7012 113.893 80.5607 113.72 80.5607Z" fill="white"/>
<path d="M115.571 80.5607H115C114.826 80.5607 114.686 80.7012 114.686 80.8744C114.686 81.0476 114.826 81.188 115 81.188H115.571C115.744 81.188 115.885 81.0476 115.885 80.8744C115.885 80.7012 115.744 80.5607 115.571 80.5607Z" fill="white"/>
<path d="M111.942 80.613H108.391C108.218 80.613 108.077 80.7535 108.077 80.9267C108.077 81.0999 108.218 81.2403 108.391 81.2403H111.942C112.115 81.2403 112.256 81.0999 112.256 80.9267C112.256 80.7535 112.115 80.613 111.942 80.613Z" fill="white"/>
<path d="M108.927 79.1449H108.356C108.183 79.1449 108.042 79.2853 108.042 79.4586C108.042 79.6318 108.183 79.7722 108.356 79.7722H108.927C109.101 79.7722 109.241 79.6318 109.241 79.4586C109.241 79.2853 109.101 79.1449 108.927 79.1449Z" fill="white"/>
<path d="M115.462 79.1449H114.891C114.718 79.1449 114.577 79.2853 114.577 79.4586C114.577 79.6318 114.718 79.7722 114.891 79.7722H115.462C115.635 79.7722 115.776 79.6318 115.776 79.4586C115.776 79.2853 115.635 79.1449 115.462 79.1449Z" fill="white"/>
<path d="M117.314 79.1449H116.742C116.569 79.1449 116.429 79.2853 116.429 79.4586C116.429 79.6318 116.569 79.7722 116.742 79.7722H117.314C117.487 79.7722 117.627 79.6318 117.627 79.4586C117.627 79.2853 117.487 79.1449 117.314 79.1449Z" fill="white"/>
<path d="M113.685 79.1972H110.133C109.96 79.1972 109.82 79.3376 109.82 79.5109C109.82 79.6841 109.96 79.8245 110.133 79.8245H113.685C113.858 79.8245 113.998 79.6841 113.998 79.5109C113.998 79.3376 113.858 79.1972 113.685 79.1972Z" fill="white"/>
<path d="M110.67 77.7291H110.099C109.925 77.7291 109.785 77.8695 109.785 78.0428C109.785 78.216 109.925 78.3564 110.099 78.3564H110.67C110.843 78.3564 110.984 78.216 110.984 78.0428C110.984 77.8695 110.843 77.7291 110.67 77.7291Z" fill="white"/>
<path d="M117.205 77.7291H116.633C116.46 77.7291 116.32 77.8695 116.32 78.0428C116.32 78.216 116.46 78.3564 116.633 78.3564H117.205C117.378 78.3564 117.518 78.216 117.518 78.0428C117.518 77.8695 117.378 77.7291 117.205 77.7291Z" fill="white"/>
<path d="M119.056 77.7291H118.485C118.312 77.7291 118.171 77.8695 118.171 78.0428C118.171 78.216 118.312 78.3564 118.485 78.3564H119.056C119.229 78.3564 119.37 78.216 119.37 78.0428C119.37 77.8695 119.229 77.7291 119.056 77.7291Z" fill="white"/>
<path d="M115.427 77.7814H111.876C111.703 77.7814 111.562 77.9218 111.562 78.095C111.562 78.2683 111.703 78.4087 111.876 78.4087H115.427C115.6 78.4087 115.741 78.2683 115.741 78.095C115.741 77.9218 115.6 77.7814 115.427 77.7814Z" fill="white"/>
<path d="M102.405 98.5694L99.7223 94.3297L108.141 87.6183L111.617 83.7685C112.068 83.2683 112.643 82.8954 113.284 82.687C113.924 82.4786 114.609 82.442 115.268 82.5808C115.927 82.7197 116.539 83.0292 117.041 83.4783C117.543 83.9275 117.919 84.5006 118.13 85.1403C118.443 86.0884 118.376 87.1211 117.942 88.0205C117.508 88.9198 116.742 89.6155 115.805 89.9606L110.31 91.985L102.405 98.5694Z" fill="#FFB6B6"/>
<path d="M39.4695 67.8284V88.4348H53.9059V67.8284C53.9062 67.6801 53.8589 67.5358 53.771 67.4164C53.6831 67.2971 53.5593 67.2091 53.4177 67.1653C53.3509 67.1433 53.281 67.1324 53.2107 67.1332H40.1667C40.0752 67.133 39.9847 67.1508 39.9001 67.1857C39.8156 67.2205 39.7387 67.2717 39.674 67.3363C39.6092 67.4008 39.5578 67.4775 39.5228 67.562C39.4877 67.6464 39.4696 67.7369 39.4695 67.8284ZM45.1034 74.9088C45.1072 74.5026 45.2712 74.1143 45.5598 73.8283C45.8484 73.5424 46.2382 73.382 46.6445 73.382C47.0508 73.382 47.4406 73.5424 47.7292 73.8283C48.0178 74.1143 48.1818 74.5026 48.1856 74.9088V77.2998C48.1835 77.7071 48.0202 78.0971 47.7314 78.3844C47.4426 78.6717 47.0519 78.833 46.6445 78.833C46.2371 78.833 45.8463 78.6717 45.5575 78.3844C45.2688 78.0971 45.1055 77.7071 45.1034 77.2998V74.9088Z" fill="#323247"/>
<path d="M39.4253 87.7758V89.7629C39.4256 89.8658 39.4665 89.9645 39.5391 90.0375C39.6117 90.1105 39.7101 90.1518 39.8131 90.1527H53.5623C53.6654 90.1522 53.764 90.1109 53.8367 90.0378C53.9094 89.9648 53.9501 89.866 53.9501 89.7629V87.7758H39.4253Z" fill="#3F3D56"/>
<path d="M16.7589 36.782V74.4065C16.7593 74.886 16.95 75.3457 17.289 75.6847C17.6281 76.0238 18.0878 76.2144 18.5673 76.2148H74.3239C74.8034 76.2144 75.2631 76.0238 75.6021 75.6847C75.9412 75.3457 76.1318 74.886 76.1322 74.4065V36.782C76.1311 36.303 75.9401 35.8439 75.6012 35.5053C75.2622 35.1668 74.8029 34.9763 74.3239 34.9757H18.5673C18.0882 34.9763 17.6289 35.1668 17.29 35.5053C16.951 35.8439 16.7601 36.303 16.7589 36.782Z" fill="#7C85B5"/>
<path d="M18.067 37.2502V73.9424C18.0674 74.1986 18.1694 74.4441 18.3505 74.6253C18.5317 74.8064 18.7772 74.9084 19.0334 74.9088H73.8597C74.1159 74.9084 74.3615 74.8064 74.5426 74.6253C74.7238 74.4441 74.8258 74.1986 74.8262 73.9424V37.2502C74.8262 36.9937 74.7244 36.7477 74.5432 36.5661C74.362 36.3846 74.1162 36.2823 73.8597 36.2817H19.0334C18.7769 36.2823 18.5311 36.3846 18.3499 36.5661C18.1688 36.7477 18.067 36.9937 18.067 37.2502Z" fill="white"/>
<path d="M28.2418 90.0181C28.2976 90.088 28.3685 90.1444 28.4493 90.1831C28.53 90.2217 28.6184 90.2415 28.7079 90.2411H61.3261C61.4153 90.241 61.5033 90.221 61.5838 90.1826C61.6643 90.1441 61.7353 90.0883 61.7915 90.019C61.8477 89.9497 61.8877 89.8688 61.9087 89.7821C61.9297 89.6954 61.9311 89.6051 61.9128 89.5178L61.4064 87.1127C61.3854 87.0147 61.3403 86.9234 61.275 86.8472C61.2097 86.7711 61.1264 86.7125 61.0327 86.6767C60.9649 86.6501 60.8926 86.6365 60.8197 86.6366H29.2123C29.1394 86.6365 29.0671 86.6501 28.9993 86.6767C28.9056 86.7125 28.8223 86.7711 28.757 86.8472C28.6917 86.9234 28.6465 87.0147 28.6256 87.1127L28.1192 89.5178C28.1012 89.605 28.1029 89.6952 28.1241 89.7817C28.1453 89.8683 28.1855 89.949 28.2418 90.0181Z" fill="#323247"/>
<path d="M72.0805 41.3362H20.7797C20.7264 41.3351 20.6756 41.313 20.6383 41.2749C20.601 41.2368 20.5802 41.1856 20.5802 41.1322C20.5802 41.0789 20.601 41.0277 20.6383 40.9896C20.6756 40.9514 20.7264 40.9294 20.7797 40.9282H72.0805C72.1338 40.9294 72.1845 40.9514 72.2218 40.9896C72.2591 41.0277 72.28 41.0789 72.28 41.1322C72.28 41.1856 72.2591 41.2368 72.2218 41.2749C72.1845 41.313 72.1338 41.3351 72.0805 41.3362Z" fill="#7C85B5"/>
<path d="M24.2718 39.8866C24.9321 39.8866 25.4674 39.3394 25.4674 38.6644C25.4674 37.9894 24.9321 37.4422 24.2718 37.4422C23.6115 37.4422 23.0762 37.9894 23.0762 38.6644C23.0762 39.3394 23.6115 39.8866 24.2718 39.8866Z" fill="#7C85B5"/>
<path d="M28.402 39.8866C29.0623 39.8866 29.5976 39.3394 29.5976 38.6644C29.5976 37.9894 29.0623 37.4422 28.402 37.4422C27.7417 37.4422 27.2064 37.9894 27.2064 38.6644C27.2064 39.3394 27.7417 39.8866 28.402 39.8866Z" fill="#7C85B5"/>
<path d="M32.5322 39.8866C33.1925 39.8866 33.7278 39.3394 33.7278 38.6644C33.7278 37.9894 33.1925 37.4422 32.5322 37.4422C31.8719 37.4422 31.3366 37.9894 31.3366 38.6644C31.3366 39.3394 31.8719 39.8866 32.5322 39.8866Z" fill="#7C85B5"/>
<path d="M69.5934 37.7444H66.6599C66.6019 37.7458 66.5467 37.7698 66.5062 37.8113C66.4657 37.8527 66.443 37.9084 66.443 37.9664C66.443 38.0244 66.4657 38.0802 66.5062 38.1216C66.5467 38.1631 66.6019 38.1871 66.6599 38.1885H69.5934C69.6517 38.1876 69.7074 38.1639 69.7484 38.1223C69.7893 38.0808 69.8123 38.0248 69.8123 37.9664C69.8123 37.9081 69.7893 37.8521 69.7484 37.8106C69.7074 37.769 69.6517 37.7453 69.5934 37.7444Z" fill="#7C85B5"/>
<path d="M69.5934 38.5783H66.6599C66.6019 38.5795 66.5466 38.6035 66.506 38.645C66.4654 38.6865 66.4427 38.7422 66.4427 38.8003C66.4427 38.8583 66.4654 38.9141 66.506 38.9556C66.5466 38.9971 66.6019 39.021 66.6599 39.0223H69.5934C69.6518 39.0216 69.7076 38.9979 69.7487 38.9563C69.7897 38.9148 69.8127 38.8587 69.8127 38.8003C69.8127 38.7419 69.7897 38.6858 69.7487 38.6442C69.7076 38.6027 69.6518 38.579 69.5934 38.5783Z" fill="#7C85B5"/>
<path d="M69.5934 39.4121H66.6599C66.6019 39.4134 66.5467 39.4374 66.5062 39.4789C66.4657 39.5204 66.443 39.5761 66.443 39.6341C66.443 39.6921 66.4657 39.7478 66.5062 39.7893C66.5467 39.8308 66.6019 39.8547 66.6599 39.8561H69.5934C69.6517 39.8553 69.7074 39.8315 69.7484 39.79C69.7893 39.7484 69.8123 39.6924 69.8123 39.6341C69.8123 39.5757 69.7893 39.5197 69.7484 39.4782C69.7074 39.4366 69.6517 39.4129 69.5934 39.4121Z" fill="#7C85B5"/>
<path d="M140.315 88.6479C140.403 88.9056 140.571 89.1287 140.794 89.285C141.018 89.4414 141.285 89.523 141.557 89.5181L146.88 89.3811C147.154 89.3757 147.42 89.2817 147.636 89.1131C147.853 88.9444 148.009 88.7102 148.082 88.4454L148.835 80.391C149.102 80.5121 149.393 80.5719 149.686 80.566C149.941 80.5596 150.192 80.5031 150.425 80.3996C150.658 80.2962 150.869 80.1479 151.044 79.9632C151.22 79.7785 151.358 79.5609 151.449 79.323C151.541 79.0852 151.585 78.8316 151.578 78.5767C151.572 78.3219 151.515 78.0708 151.412 77.8378C151.308 77.6048 151.16 77.3945 150.975 77.2188C150.791 77.0431 150.573 76.9056 150.335 76.814C150.097 76.7223 149.844 76.6785 149.589 76.6849C149.472 76.6845 149.355 76.6967 149.24 76.7212C149.115 76.5863 148.964 76.479 148.795 76.4062C148.627 76.3334 148.444 76.2968 148.261 76.2986L140.073 76.5101C140.005 76.5126 139.938 76.521 139.871 76.5351C139.691 76.5686 139.521 76.6401 139.372 76.745C139.222 76.8498 139.097 76.9854 139.004 77.1427C138.911 77.3001 138.853 77.4754 138.834 77.6571C138.814 77.8387 138.834 78.0223 138.892 78.1957L140.315 88.6479ZM148.989 79.8441L149.525 77.9248C149.586 77.7031 149.588 77.4692 149.529 77.2468C149.555 77.2467 149.578 77.2344 149.604 77.2343C149.972 77.2267 150.327 77.3652 150.593 77.6193C150.859 77.8734 151.013 78.2225 151.021 78.59C151.03 78.9575 150.892 79.3134 150.639 79.5797C150.386 79.8459 150.037 80.0009 149.669 80.0105C149.432 80.0179 149.197 79.9604 148.989 79.8441Z" fill="#323247"/>
<path d="M139.871 76.5351C140.045 77.5325 142.007 78.2337 144.365 78.1118C146.533 78.0119 148.307 77.2504 148.631 76.348C148.511 76.3125 148.386 76.2958 148.261 76.2986L140.073 76.51C140.005 76.5125 139.938 76.5209 139.871 76.5351Z" fill="#3F3D56"/>
<path d="M144.797 84.222C144.808 84.2192 144.818 84.2147 144.827 84.2086L145.983 83.452C145.997 83.4429 146.009 83.4304 146.017 83.4158C146.025 83.4011 146.029 83.3847 146.029 83.368C146.029 83.3513 146.025 83.3349 146.017 83.3202C146.009 83.3056 145.997 83.2931 145.983 83.284L144.782 82.4971C144.771 82.4898 144.759 82.4847 144.746 82.4822C144.733 82.4797 144.719 82.4798 144.706 82.4824C144.693 82.4851 144.681 82.4903 144.67 82.4977C144.659 82.5052 144.65 82.5147 144.643 82.5257C144.635 82.5368 144.63 82.5492 144.628 82.5622C144.625 82.5752 144.626 82.5885 144.628 82.6015C144.631 82.6144 144.636 82.6267 144.644 82.6376C144.651 82.6485 144.661 82.6578 144.672 82.665L145.745 83.3679L144.717 84.0405C144.698 84.0535 144.683 84.0732 144.676 84.096C144.669 84.1187 144.671 84.1432 144.68 84.165C144.69 84.1867 144.707 84.2044 144.728 84.2148C144.75 84.2253 144.774 84.2278 144.797 84.222Z" fill="#7C85B5"/>
<path d="M142.971 84.3061C142.991 84.3012 143.008 84.2906 143.022 84.2757C143.035 84.2608 143.043 84.2422 143.046 84.2224C143.049 84.2026 143.046 84.1824 143.037 84.1644C143.028 84.1465 143.014 84.1316 142.997 84.1216L141.931 83.5107L142.961 82.7458C142.972 82.7379 142.981 82.7281 142.987 82.7167C142.994 82.7054 142.999 82.6929 143 82.6799C143.002 82.6668 143.002 82.6535 142.998 82.6407C142.995 82.6279 142.99 82.6159 142.982 82.6053C142.974 82.5947 142.964 82.5858 142.953 82.5791C142.941 82.5723 142.929 82.5678 142.916 82.5659C142.903 82.564 142.889 82.5646 142.877 82.5679C142.864 82.5711 142.852 82.5768 142.841 82.5846L141.688 83.4411C141.675 83.451 141.664 83.4641 141.657 83.4792C141.65 83.4943 141.647 83.511 141.648 83.5276C141.649 83.5443 141.654 83.5604 141.663 83.5746C141.671 83.5888 141.684 83.6005 141.698 83.6088L142.897 84.2959C142.919 84.3089 142.946 84.3126 142.971 84.3061Z" fill="#7C85B5"/>
<path d="M144.682 84.885C144.692 84.8826 144.701 84.8787 144.71 84.8734C144.721 84.8665 144.731 84.8575 144.739 84.8469C144.746 84.8362 144.752 84.8241 144.755 84.8113C144.758 84.7985 144.759 84.7852 144.757 84.7721C144.755 84.7591 144.75 84.7466 144.743 84.7353L143.105 82.0413C143.091 82.0186 143.068 82.0023 143.043 81.996C143.017 81.9898 142.989 81.9941 142.967 82.0079C142.944 82.0218 142.928 82.0441 142.921 82.0699C142.915 82.0958 142.919 82.1231 142.933 82.1459L144.572 84.8399C144.583 84.8582 144.6 84.8725 144.619 84.8806C144.639 84.8887 144.661 84.8903 144.682 84.885Z" fill="#7C85B5"/>
<path d="M52.5596 52.427H43.6806C43.3184 52.427 43.0247 52.7206 43.0247 53.0828V53.9503C43.0247 54.3125 43.3184 54.6061 43.6806 54.6061H52.5596C52.9218 54.6061 53.2155 54.3125 53.2155 53.9503V53.0828C53.2155 52.7206 52.9218 52.427 52.5596 52.427Z" fill="#444564"/>
<path d="M57.7351 56.7853H38.5051C38.1429 56.7853 37.8492 57.0789 37.8492 57.4411V58.3085C37.8492 58.6708 38.1429 58.9644 38.5051 58.9644H57.7351C58.0974 58.9644 58.391 58.6708 58.391 58.3085V57.4411C58.391 57.0789 58.0974 56.7853 57.7351 56.7853Z" fill="#E6E6E6"/>
<path d="M57.7351 61.1435H38.5051C38.1429 61.1435 37.8492 61.4372 37.8492 61.7994V62.6668C37.8492 63.029 38.1429 63.3227 38.5051 63.3227H57.7351C58.0974 63.3227 58.391 63.029 58.391 62.6668V61.7994C58.391 61.4372 58.0974 61.1435 57.7351 61.1435Z" fill="#E6E6E6"/>
<path d="M59.3653 75.7376L59.4088 75.8751L59.4111 75.8797L60.7222 79.8656L62.2304 84.4588L65.068 93.0907L65.0955 94.4315V94.4361L65.3063 105.222L64.7219 106.685L65.3797 109.082C65.3797 109.082 65.0771 105.458 63.4544 107.539C62.5352 108.722 61.4602 109.932 60.5778 111.067C61.8637 111.587 63.1701 112.058 64.4973 112.479C64.7838 112.57 65.0726 112.658 65.3614 112.745C65.4233 112.763 65.4851 112.781 65.547 112.8C69.9462 114.101 74.4942 114.832 79.0795 114.975C79.3178 114.982 79.5517 114.986 79.7786 114.991C79.8588 114.993 79.9367 114.995 80.0147 114.995C80.2714 114.998 80.5258 115 80.7825 115C81.3005 115 81.8162 114.992 82.3297 114.977C86.1298 114.87 89.9078 114.359 93.5998 113.453C93.5746 111.929 93.5058 110.148 93.4073 108.245C93.3614 107.312 92.3323 106.302 92.2704 105.325C92.2269 104.592 93.1506 103.902 93.1024 103.157C92.7907 98.5706 92.4011 100.331 92.1123 97.0834C92.0825 96.7648 92.055 96.46 92.0297 96.1689C91.8441 94.0831 91.7157 92.7789 91.7157 92.7789L92.9489 85.0066L94.8857 72.8038L94.7367 72.5586L94.5694 72.476L84.3536 67.4198L83.7989 65.9987C83.6373 65.5893 83.3569 65.2376 82.9937 64.9889C82.6306 64.7401 82.2014 64.6057 81.7612 64.6029L75.0317 64.5754C74.6824 64.5738 74.3378 64.6555 74.0265 64.8138C73.7152 64.972 73.4461 65.2022 73.2415 65.4853L71.4193 68.0088L59.3653 75.7376Z" fill="#7C85B5"/>
<path d="M66.6197 91.1699L65.0955 94.4315L64.0549 96.6594L62.2648 106.032L61.3686 106.983L60.6007 103.615L52.5642 105.4C52.3006 103.935 52.4936 105.449 52.3309 103.843C52.3767 103.797 52.4248 103.751 52.473 103.705C52.6013 103.586 52.7091 103.474 52.7068 103.366C52.6151 97.8237 52.8901 88.392 55.1868 82.6779C55.5465 81.745 56.0208 80.8603 56.5987 80.0444C56.6446 79.9825 56.6881 79.9206 56.7317 79.8587C57.7906 78.3757 58.4599 76.9157 59.4088 75.8774V75.8751C59.4147 75.8704 59.4201 75.865 59.4249 75.8591C59.4283 75.8574 59.4314 75.855 59.434 75.8522L65.9527 72.3958L66.2324 80.2529L66.4318 85.9005L66.6197 91.1699Z" fill="#7C85B5" fill-opacity="0.8"/>
<path d="M90.1249 92.0963L92.0288 96.17L92.6934 97.5887L94.483 106.96L95.3762 107.909L96.1459 104.542L96.5075 104.468L103.029 103.118L104.93 109.154C105.358 108.441 105.527 107.601 105.408 106.777C105.288 105.953 104.888 105.195 104.275 104.633C104.145 104.515 104.037 104.401 104.04 104.293C104.148 97.7741 103.749 85.8714 100.149 80.9725C99.0049 79.4178 98.3187 77.8694 97.3204 76.7876C97.3173 76.7845 97.3173 76.7814 97.3142 76.7814L94.8848 72.8035L94.7364 72.5594L94.5695 72.4759L90.1249 92.0963Z" fill="#7C85B5"/>
<path d="M78.5908 62.6602C83.5353 62.6602 87.5437 58.652 87.5437 53.7076C87.5437 48.7631 83.5353 44.7549 78.5908 44.7549C73.6463 44.7549 69.638 48.7631 69.638 53.7076C69.638 58.652 73.6463 62.6602 78.5908 62.6602Z" fill="#FFB6B6"/>
<path d="M90.6917 47.4541C90.6223 47.38 90.5386 47.3206 90.4458 47.2795C90.3529 47.2384 90.2527 47.2165 90.1512 47.215L90.2858 46.8413C90.3297 46.7236 90.3416 46.5963 90.3202 46.4725C90.2987 46.3487 90.2448 46.2328 90.1638 46.1368C90.0828 46.0407 89.9778 45.9678 89.8594 45.9257C89.741 45.8836 89.6136 45.8737 89.4901 45.897L88.9999 45.9914L89.0461 45.6639C89.0638 45.5419 89.0495 45.4175 89.0045 45.3027C88.9595 45.188 88.8854 45.0869 88.7895 45.0094C88.6936 44.932 88.5793 44.8809 88.4576 44.861C88.336 44.8412 88.2112 44.8534 88.0957 44.8964C87.9906 44.9378 87.8776 44.9551 87.765 44.9471C87.6523 44.9391 87.5429 44.906 87.4447 44.8502C87.3461 44.7961 87.2605 44.7212 87.1939 44.6306C87.1273 44.54 87.0812 44.436 87.0589 44.3258L86.8882 43.502L86.8701 43.4578C86.0382 42.0714 84.4389 41.0628 82.4819 40.6931C80.7399 40.3616 78.9536 40.5304 77.2317 40.6891C76.5486 40.7534 75.777 40.8257 75.1341 41.2195C74.5876 41.5571 74.1254 42.2322 74.2199 42.9133C72.522 42.3929 70.7017 43.4317 69.7995 44.7417C68.7306 46.3008 68.5558 48.2538 68.5277 49.7808C68.4513 53.3934 69.1967 56.3489 70.7378 58.5671C70.8504 58.7278 70.8785 59.0633 71.1015 59.1759L71.0553 59.1015C71.3044 59.2261 71.5576 59.427 71.4632 59.642C71.1919 60.2608 72.9942 61.6291 74.2641 62.0812C76.5807 62.907 79.6609 62.8366 81.8269 62.5393L81.9032 62.0269C82.6848 61.9204 83.2353 61.7175 83.3901 61.4001C83.6633 61.167 83.8964 60.958 84.0993 60.7651L84.1013 60.7631C84.1054 60.7591 84.1134 60.7531 84.1174 60.7491C85.0959 59.8108 85.323 59.2763 85.4254 58.4626C85.5239 57.6649 85.3491 56.8552 85.1703 56.1259C88.9356 56.7086 83.6874 52.1155 87.1956 51.2274C87.2358 51.215 87.2767 51.205 87.3181 51.1973C87.4206 51.1732 87.5231 51.1491 87.6215 51.1209C88.0961 50.9921 88.5505 50.7981 88.9718 50.5443C89.9523 49.9476 90.2758 49.1559 90.7821 48.2638C90.8551 48.1368 90.8858 47.9898 90.8695 47.8442C90.8532 47.6985 90.7909 47.5619 90.6917 47.4541Z" fill="#2F2E41"/>
<path d="M110.256 92.7337C110.254 93.0853 110.25 93.5776 110.234 94.1864C110.232 94.2708 110.23 94.3572 110.228 94.4456C110.201 95.5647 110.175 96.503 110.133 97.5458C110.131 97.6181 110.129 97.6884 110.125 97.7608C110.069 99.2154 109.98 100.909 109.828 103.592C109.544 108.546 109.05 104.273 108.554 106.011C108.53 106.097 108.504 106.199 108.48 106.32C108.404 106.757 108.278 107.184 108.102 107.592C107.839 107.749 107.567 107.899 107.3 108.05C106.539 108.474 105.765 108.882 104.985 109.27C104.547 109.487 104.107 109.7 103.665 109.904C103.595 109.937 103.527 109.969 103.458 109.999C101.195 111.046 98.862 111.936 96.4763 112.663C96.0101 112.804 95.546 112.94 95.0759 113.067C94.5856 113.204 94.0953 113.332 93.599 113.453C89.9071 114.359 86.1292 114.87 82.3292 114.978C81.8168 114.994 81.3005 115 80.7821 115C80.5249 115 80.2717 114.998 80.0145 114.996C79.9362 114.996 79.8578 114.994 79.7795 114.992C79.5524 114.986 79.3173 114.982 79.0802 114.976C74.4949 114.833 69.947 114.101 65.548 112.8L65.3611 112.745C65.0718 112.657 64.7844 112.571 64.4971 112.478C63.171 112.058 61.8643 111.588 60.5771 111.068C59.5946 110.672 58.6234 110.247 57.6637 109.794C57.6549 109.792 57.6467 109.787 57.6396 109.782C57.4386 109.689 57.2357 109.593 57.0348 109.495C57.0087 109.481 56.9805 109.466 56.9524 109.452C56.2029 109.087 55.4615 108.704 54.7282 108.303C54.1113 106.887 53.2433 106.615 52.7048 105.37C52.5481 105 52.4349 104.613 52.3673 104.216C52.3673 104.212 52.3653 104.208 52.3653 104.202C52.4215 104.95 52.1262 102.876 52.3633 104.194C52.3613 104.17 52.3593 104.144 52.3572 104.114C52.3512 104.042 52.3432 103.953 52.3311 103.843C51.642 97.1138 51.6862 89.4185 51.3868 83.0775C51.3667 82.6676 51.3459 82.2751 51.3245 81.9001C51.3185 81.7755 51.3104 81.6529 51.3024 81.5324C51.3165 81.4962 51.3325 81.458 51.3506 81.4219C51.3545 81.4114 51.3592 81.4014 51.3647 81.3917C51.3706 81.3793 51.3773 81.3672 51.3848 81.3556C51.3888 81.3495 51.3948 81.3415 51.3988 81.3355C51.4018 81.3286 51.4051 81.3219 51.4089 81.3154C51.427 81.2873 51.4471 81.2571 51.4692 81.229C51.4792 81.2169 51.4872 81.2069 51.4973 81.1968C51.5042 81.1866 51.5123 81.1771 51.5214 81.1687C51.5276 81.1591 51.535 81.1503 51.5435 81.1426C51.5515 81.1346 51.5596 81.1245 51.5696 81.1145C51.5739 81.1082 51.5794 81.1027 51.5857 81.0984C51.6016 81.0801 51.6191 81.0633 51.6379 81.0482C51.7096 80.9822 51.7862 80.9218 51.867 80.8673C51.8951 80.8493 51.9253 80.8312 51.9534 80.8111C52.1559 80.69 52.3691 80.5877 52.5903 80.5057C52.6667 80.4775 52.743 80.4514 52.8254 80.4233C52.8555 80.4153 52.8837 80.4052 52.9138 80.3952C52.958 80.3811 53.0022 80.367 53.0484 80.357C53.2775 80.2887 53.5246 80.2304 53.7918 80.1762C53.824 80.1701 53.8582 80.1641 53.8923 80.1561C53.9405 80.146 53.9908 80.138 54.041 80.13C54.1093 80.1179 54.1796 80.1058 54.25 80.0938C54.8467 79.9994 55.5238 79.929 56.2713 79.8828C56.3416 79.8788 56.4119 79.8748 56.4822 79.8708C56.5646 79.8668 56.647 79.8627 56.7314 79.8587C56.8017 79.8547 56.874 79.8527 56.9464 79.8507C57.0167 79.8467 57.089 79.8446 57.1634 79.8426C57.3663 79.8366 57.5753 79.8306 57.7882 79.8266C58.395 79.8145 59.034 79.8185 59.7051 79.8326C60.0165 79.8406 60.334 79.8487 60.6595 79.8627C60.6816 79.8627 60.7017 79.8647 60.7217 79.8647C61.005 79.8748 61.2904 79.8868 61.5837 79.9029C61.7887 79.913 61.9956 79.923 62.2025 79.9351C62.3974 79.9471 62.5944 79.9592 62.7933 79.9732C62.948 79.9813 63.1027 79.9933 63.2594 80.0034C63.392 80.0134 63.5246 80.0235 63.6572 80.0315L63.8381 80.0436C63.9365 80.0516 64.035 80.0576 64.1354 80.0677C64.3565 80.0858 64.5775 80.1038 64.8025 80.1219C65.0255 80.142 65.2526 80.1621 65.4796 80.1822C65.7067 80.2023 65.9357 80.2244 66.1648 80.2465C66.1889 80.2485 66.211 80.2505 66.2331 80.2525C66.4421 80.2746 66.651 80.2947 66.862 80.3168C66.9102 80.3208 66.9604 80.3248 67.0087 80.3309C67.2098 80.3511 67.4149 80.3747 67.6179 80.3963C67.6802 80.403 67.7421 80.4095 67.8046 80.4164C67.9636 80.4337 68.1204 80.4487 68.2805 80.4675C68.4915 80.4916 68.7065 80.5137 68.9154 80.5418C69.0782 80.5599 69.2409 80.578 69.4037 80.5981C69.6588 80.6282 69.918 80.6604 70.1772 80.6945C70.2757 80.7066 70.3741 80.7187 70.4726 80.7327C71.212 80.8251 71.9594 80.9276 72.7189 81.0341C73.8702 81.1968 75.0396 81.3737 76.217 81.5645C77.3965 81.7554 78.5826 81.957 79.7754 82.1693C80.0768 82.2236 80.3782 82.2778 80.6816 82.3341C80.8182 82.3602 80.9548 82.3863 81.0915 82.4124C81.3245 82.4546 81.5576 82.4988 81.7907 82.543C82.0237 82.5872 82.2568 82.6314 82.4899 82.6776C82.7672 82.7319 83.0465 82.7861 83.3237 82.8404C85.1501 83.202 86.9665 83.5878 88.7387 83.9917C89.03 84.0579 89.3213 84.1263 89.6107 84.1926C90.1893 84.3272 90.7626 84.4638 91.3306 84.6025C91.4873 84.6386 91.642 84.6768 91.7967 84.715C92.1825 84.8114 92.5683 84.9079 92.948 85.0063L93.0143 85.0244C93.2936 85.0927 93.5669 85.163 93.8401 85.2354C94.4851 85.4041 95.1193 85.5749 95.7429 85.7477C96.1568 85.8622 96.566 85.9781 96.9705 86.0953C97.5753 86.2701 98.168 86.4469 98.7447 86.6257C98.8874 86.6699 99.03 86.7141 99.1707 86.7563C99.5926 86.8869 100.009 87.0195 100.412 87.1521C100.734 87.2566 101.047 87.3631 101.357 87.4696C101.666 87.5761 101.97 87.6826 102.267 87.7891C102.458 87.8574 102.647 87.9297 102.836 87.998C103.107 88.0985 103.374 88.1989 103.635 88.2994C103.716 88.3295 103.794 88.3617 103.872 88.3918C103.923 88.4139 103.971 88.432 104.019 88.4521C104.113 88.4903 104.21 88.5264 104.302 88.5646C104.397 88.6008 104.489 88.639 104.582 88.6791C104.672 88.7153 104.764 88.7535 104.853 88.7917C104.943 88.8278 105.032 88.866 105.12 88.9062C105.194 88.9363 105.267 88.9685 105.337 89.0006C105.48 89.0629 105.622 89.1252 105.761 89.1895C105.829 89.2216 105.898 89.2518 105.966 89.2839L106.123 89.3562C106.145 89.3683 106.167 89.3783 106.189 89.3884C106.239 89.4125 106.291 89.4386 106.342 89.4627C106.458 89.517 106.573 89.5753 106.685 89.6295C106.836 89.7059 106.983 89.7822 107.123 89.8565C107.266 89.9329 107.405 90.0092 107.537 90.0836C107.559 90.0956 107.579 90.1077 107.601 90.1197C107.632 90.1358 107.662 90.1539 107.692 90.17C107.794 90.2282 107.893 90.2885 107.991 90.3468C108.184 90.4653 108.367 90.5819 108.538 90.6984C108.576 90.7245 108.612 90.7506 108.65 90.7747C108.777 90.8651 108.897 90.9536 109.01 91.044C109.01 91.046 109.01 91.046 109.012 91.046C109.05 91.0741 109.086 91.1042 109.122 91.1324C109.153 91.1605 109.185 91.1846 109.215 91.2127C109.319 91.3032 109.416 91.3895 109.504 91.478C109.534 91.5052 109.562 91.5341 109.589 91.5644C109.6 91.574 109.611 91.5848 109.621 91.5965C109.661 91.6367 109.697 91.6769 109.731 91.717C109.737 91.7226 109.741 91.7286 109.745 91.7351C109.794 91.7914 109.838 91.8477 109.88 91.9039C109.9 91.932 109.922 91.9602 109.94 91.9883C109.964 92.0225 109.988 92.0586 110.009 92.0928C110.027 92.1209 110.043 92.151 110.059 92.1792C110.101 92.2516 110.138 92.3276 110.167 92.4062C110.19 92.4596 110.208 92.5146 110.222 92.571C110.237 92.6243 110.248 92.6787 110.256 92.7337Z" fill="#2F2E41"/>
<path opacity="0.2" d="M110.256 92.7337C110.254 93.0853 110.25 93.5776 110.234 94.1864C110.232 94.2708 110.228 94.3572 110.226 94.4456C110.205 95.2995 110.175 96.3543 110.133 97.5458C110.131 97.6181 110.129 97.6884 110.125 97.7608C110.069 99.2154 109.98 100.909 109.828 103.591C109.544 108.546 109.05 104.273 108.554 106.011C107.176 105.163 105.665 104.275 104.049 103.362C103.758 103.198 103.464 103.032 103.167 102.866C99.9362 101.064 96.3276 99.1752 92.5603 97.3047C92.4116 97.2303 92.2609 97.156 92.1122 97.0837C83.4825 92.8181 74.0631 88.6691 66.432 85.9004C64.9592 85.3659 63.5528 84.8837 62.2307 84.4598C59.4459 83.5697 57.0388 82.9468 55.1862 82.6776C53.2574 82.3963 51.9252 82.4968 51.3868 83.0774C51.3667 82.6676 51.3459 82.2751 51.3245 81.9C51.3164 81.7755 51.3084 81.6529 51.3004 81.5324C51.3128 81.4993 51.3289 81.4677 51.3445 81.4359C51.3467 81.4312 51.3483 81.4264 51.3506 81.4218C51.3544 81.4114 51.3592 81.4013 51.3647 81.3917C51.3706 81.3792 51.3773 81.3672 51.3848 81.3555C51.3913 81.3413 51.3994 81.3278 51.4089 81.3154C51.4269 81.2872 51.447 81.2571 51.4691 81.229C51.4854 81.2079 51.5028 81.1878 51.5214 81.1687C51.5275 81.159 51.535 81.1502 51.5435 81.1426C51.5515 81.1345 51.5596 81.1245 51.5696 81.1144C51.5739 81.1081 51.5794 81.1027 51.5857 81.0984C51.6016 81.0801 51.6191 81.0633 51.6379 81.0481C51.7096 80.9822 51.7862 80.9217 51.867 80.8673C51.8951 80.8492 51.9252 80.8311 51.9534 80.811C52.1559 80.6899 52.3691 80.5877 52.5903 80.5056C52.6667 80.4775 52.743 80.4514 52.8254 80.4233C52.8555 80.4152 52.8837 80.4052 52.9138 80.3951C52.958 80.3811 53.0022 80.367 53.0484 80.357C53.2775 80.2887 53.5246 80.2304 53.7918 80.1761C53.8722 80.1601 53.9566 80.144 54.041 80.1299C54.1093 80.1179 54.1796 80.1058 54.2499 80.0938C54.8467 79.9993 55.5238 79.929 56.2712 79.8828C56.3416 79.8788 56.4119 79.8748 56.4822 79.8707C56.5646 79.8667 56.647 79.8627 56.7314 79.8587C56.8017 79.8547 56.874 79.8527 56.9464 79.8506C57.0167 79.8466 57.089 79.8446 57.1634 79.8426C57.3663 79.8366 57.5752 79.8306 57.7882 79.8265C58.395 79.8165 59.034 79.8205 59.705 79.8346C60.0165 79.8406 60.3339 79.8506 60.6594 79.8647C60.6795 79.8647 60.7016 79.8667 60.7217 79.8667C61.005 79.8748 61.2924 79.8888 61.5837 79.9029C61.7886 79.9129 61.9956 79.923 62.2025 79.935C62.3974 79.9471 62.5943 79.9591 62.7933 79.9732C62.948 79.9812 63.1027 79.9933 63.2594 80.0033C63.392 80.0134 63.5246 80.0234 63.6572 80.0315C63.816 80.0435 63.9747 80.0556 64.1354 80.0676C64.3564 80.0857 64.5775 80.1038 64.8025 80.1219C65.0255 80.142 65.2526 80.1621 65.4796 80.1822C65.7067 80.2022 65.9357 80.2244 66.1648 80.2465C66.1889 80.2485 66.211 80.2505 66.2331 80.2525C66.442 80.2746 66.651 80.2947 66.862 80.3168C68.0314 80.4353 69.2349 80.574 70.4726 80.7327C71.212 80.8271 71.9608 80.9282 72.7189 81.0361C73.8702 81.1988 75.0396 81.3756 76.217 81.5645C77.3965 81.7554 78.5826 81.957 79.7754 82.1693C80.0768 82.2235 80.3782 82.2778 80.6816 82.334C81.0513 82.4023 81.421 82.472 81.7907 82.543C82.0238 82.5872 82.2568 82.6314 82.4899 82.6776C82.7672 82.7319 83.0465 82.7861 83.3237 82.8404C85.1501 83.202 86.9665 83.5878 88.7387 83.9916C89.03 84.0579 89.3213 84.1262 89.6107 84.1925C90.1893 84.3272 90.7626 84.4638 91.3306 84.6024C91.4873 84.6406 91.642 84.6788 91.7967 84.7169C92.1845 84.8134 92.5683 84.9098 92.948 85.0063V85.0083C92.9701 85.0123 92.9922 85.0183 93.0143 85.0244C93.2916 85.0947 93.5669 85.165 93.8401 85.2373C94.4851 85.4061 95.1194 85.5762 95.7429 85.7477C96.1568 85.8642 96.5667 85.9787 96.9705 86.0953C97.5753 86.2721 98.1681 86.4489 98.7447 86.6257C98.8874 86.6699 99.03 86.7141 99.1707 86.7563C99.5926 86.8889 100.007 87.0208 100.412 87.1521C100.734 87.2566 101.047 87.3631 101.357 87.4696C101.666 87.5761 101.97 87.6826 102.267 87.789C102.46 87.8574 102.649 87.9277 102.836 87.996C103.109 88.0964 103.374 88.1969 103.635 88.2994C103.716 88.3295 103.794 88.3617 103.872 88.3918C104.019 88.4481 104.162 88.5063 104.302 88.5646C104.397 88.6008 104.489 88.6389 104.582 88.6791C104.672 88.7153 104.764 88.7535 104.853 88.7916C104.943 88.8278 105.032 88.866 105.12 88.9062C105.194 88.9363 105.267 88.9684 105.337 89.0006C105.48 89.0629 105.622 89.1252 105.761 89.1895C105.829 89.2216 105.898 89.2517 105.966 89.2839L106.123 89.3562C106.145 89.3683 106.167 89.3783 106.189 89.3884C106.36 89.4687 106.525 89.5491 106.685 89.6295C106.836 89.7058 106.983 89.7822 107.123 89.8565C107.29 89.9449 107.449 90.0313 107.601 90.1197C107.632 90.1358 107.662 90.1539 107.692 90.17C107.794 90.2282 107.893 90.2885 107.991 90.3468C108.184 90.4653 108.367 90.5818 108.538 90.6984C108.707 90.8149 108.863 90.9294 109.01 91.044C109.01 91.046 109.01 91.046 109.012 91.046C109.082 91.1022 109.151 91.1585 109.215 91.2127C109.319 91.3031 109.416 91.3895 109.504 91.4779C109.534 91.5052 109.562 91.5341 109.589 91.5643C109.6 91.574 109.611 91.5848 109.621 91.5965C109.663 91.6427 109.705 91.6889 109.745 91.7351C109.794 91.7914 109.838 91.8476 109.88 91.9039C109.9 91.932 109.922 91.9601 109.94 91.9883C109.964 92.0224 109.988 92.0586 110.009 92.0928C110.027 92.1209 110.043 92.151 110.059 92.1792C110.101 92.2516 110.138 92.3275 110.167 92.4062C110.189 92.4597 110.207 92.5148 110.222 92.5709C110.237 92.6243 110.248 92.6787 110.256 92.7337Z" fill="black"/>
</g>
<defs>
<clipPath id="clip0_110_1108">
<rect width="158.092" height="114.979" fill="white" transform="translate(0.954216 0.0213165)"/>
</clipPath>
</defs>
</svg>
